<svg xmlns="http://www.w3.org/2000/svg" xmlns:xlink="http://www.w3.org/1999/xlink" width="24" height="24" viewBox="0 0 24 24">
    <defs>
        <path id="s20lid5iua" d="M17.087.635c2.363 0 4.278 1.915 4.278 4.278 0 2.363-1.915 4.278-4.278 4.278-1.387 0-2.62-.66-3.401-1.682L9.03 9.836c.104.37.16.76.16 1.164 0 .376-.048.74-.14 1.088l4.683 2.341c.784-.987 1.994-1.62 3.353-1.62 2.363 0 4.278 1.915 4.278 4.278 0 2.363-1.915 4.278-4.278 4.278-2.363 0-4.278-1.915-4.278-4.278 0-.431.064-.848.182-1.24l-4.63-2.315c-.778 1.06-2.033 1.746-3.448 1.746C2.55 15.278.635 13.363.635 11c0-2.363 1.915-4.278 4.278-4.278 1.387 0 2.62.66 3.402 1.683l4.654-2.328c-.104-.37-.16-.76-.16-1.164 0-2.363 1.915-4.278 4.278-4.278zm0 13.774c-1.48 0-2.678 1.199-2.678 2.678 0 1.48 1.199 2.678 2.678 2.678 1.48 0 2.678-1.199 2.678-2.678 0-1.48-1.199-2.678-2.678-2.678zM4.913 8.322c-1.48 0-2.678 1.199-2.678 2.678 0 1.48 1.199 2.678 2.678 2.678 1.022 0 1.911-.573 2.362-1.415.011-.049.03-.096.053-.143.018-.036.038-.07.06-.102.132-.313.203-.657.203-1.018 0-1.48-1.199-2.678-2.678-2.678zm12.174-6.087c-1.48 0-2.678 1.199-2.678 2.678 0 1.48 1.199 2.678 2.678 2.678 1.48 0 2.678-1.199 2.678-2.678 0-1.48-1.199-2.678-2.678-2.678z"/>
    </defs>
    <g fill="none" fill-rule="evenodd">
        <g>
            <g>
                <g>
                    <g>
                        <g>
                            <g>
                                <g>
                                    <g>
                                        <g>
                                            <g transform="translate(-804 -1367) translate(80 1102) translate(0 140) translate(0 64) translate(24 16) translate(639.009 21) translate(.991 16) translate(52) translate(8 8) translate(1 1)">
                                                <mask id="lsxa4fk96b" fill="#fff">
                                                    <use xlink:href="#s20lid5iua"/>
                                                </mask>
                                                <use fill="#787878" xlink:href="#s20lid5iua"/>
                                                <g fill="#787878" mask="url(#lsxa4fk96b)">
                                                    <path d="M0 0H24V24H0z" transform="translate(-1 -1)"/>
                                                </g>
                                            </g>
                                        </g>
                                    </g>
                                </g>
                            </g>
                        </g>
                    </g>
                </g>
            </g>
        </g>
    </g>
</svg>
