<svg xmlns="http://www.w3.org/2000/svg" width="11" height="11" viewBox="0 0 11 11">
    <g fill="none" fill-rule="evenodd">
        <g>
            <g>
                <g>
                    <g>
                        <g>
                            <path fill="#0D5CB6" d="M5.502.917C2.973.917.917 2.972.917 5.5s2.056 4.583 4.585 4.583c2.528 0 4.581-2.055 4.581-4.583S8.03.917 5.502.917zm0 .61c2.198 0 3.973 1.776 3.973 3.973S7.7 9.472 5.502 9.472c-2.199 0-3.977-1.775-3.977-3.972s1.778-3.972 3.977-3.972zm-.016.816c-.867 0-1.625.51-1.809 1.26-.036.11-.008.23.074.312.08.081.201.11.31.075.11-.036.19-.13.208-.244.104-.421.592-.792 1.217-.792.715 0 1.238.466 1.238.977 0 .846-.282 1.058-.662 1.4-.38.342-.866.82-.866 1.799-.002.11.056.212.151.268.096.055.213.055.309 0 .095-.056.153-.158.151-.268 0-.805.278-.998.663-1.344.384-.345.866-.842.866-1.855 0-.908-.86-1.588-1.85-1.588zm.016 5.5c-.225 0-.408.182-.408.407 0 .225.183.407.408.407.225 0 .407-.182.407-.407 0-.225-.182-.407-.407-.407z" transform="translate(-625 -2323) translate(80 2019) translate(395 184) translate(16 114) translate(134 6)"/>
                        </g>
                    </g>
                </g>
            </g>
        </g>
    </g>
</svg>
